#!OML:ASF E:\Style6\Style6.ASF
:FULLY-SPECIFIED
:DEGREES
2780
root 0.478 17.6851 -0.888142 33.604 -8.18678 -0.420759
lowerback 31.0342 -0.894638 3.39359
upperback 13.9207 -0.262131 1.81447
thorax -1.20118 -0.107055 0.140109
lowerneck -14.3497 -0.541423 2.6535
upperneck -4.24732 -1.15736 -4.77362
head 1.05476 -0.750016 -2.05258
rclavicle 2.14687e-014 -8.74653e-015
rhumerus 31.9141 21.4899 -48.6324
rradius 99.9257
rwrist -0.199223
rhand -17.9276 -0.387973
rfingers 7.12502
rthumb 8.3402 -30.2033
lclavicle 2.14687e-014 -8.74653e-015
lhumerus 32.9851 -16.5636 70.2316
lradius 117.265
lwrist -16.1949
lhand 7.02354 27.5425
lfingers 7.12502
lthumb 32.2981 54.6882
rfemur -55.7024 7.21317 12.6657
rtibia 28.2075
rfoot -1.46223 -14.9108
rtoes -8.92798
lfemur -54.2764 0.626702 -17.9058
ltibia 35.0248
lfoot -5.18688 13.5527
ltoes -17.6262
2781
root 0.4712 17.6793 -0.889434 33.5246 -8.17596 -0.625581
lowerback 31.0681 -0.877143 3.60294
upperback 13.9279 -0.190539 1.76973
thorax -1.20403 -0.0623181 -0.0507225
lowerneck -14.1824 -0.500388 2.83965
upperneck -4.30882 -1.1275 -5.18768
head 1.00851 -0.743827 -2.21944
rclavicle -1.51076e-014 1.68967e-014
rhumerus 31.3909 22.5265 -48.1733
rradius 99.3402
rwrist -2.84891
rhand -14.1987 -0.269883
rfingers 7.12502
rthumb 11.9375 -29.9095
lclavicle -1.51076e-014 1.68967e-014
lhumerus 33.3603 -15.915 70.4137
lradius 117.594
lwrist -17.1829
lhand 0.507541 25.4527
lfingers 7.12502
lthumb 26.0764 53.6827
rfemur -55.64 7.12894 13.0571
rtibia 28.2902
rfoot -1.38015 -14.5939
rtoes -9.28608
lfemur -54.4095 0.872473 -17.8099
ltibia 35.4488
lfoot -5.31345 13.5374
ltoes -17.1332
2782
root 0.466366 17.6766 -0.890526 33.4288 -8.13652 -0.843427
lowerback 31.1741 -0.912891 3.74634
upperback 13.9527 -0.194076 1.78999
thorax -1.21971 -0.0600107 -0.108381
lowerneck -14.18 -0.406324 2.9242
upperneck -4.32206 -1.01186 -5.57166
head 1.01048 -0.694657 -2.35749
rclavicle -6.36111e-015 1.98785e-016
rhumerus 31.202 23.5255 -47.8098
rradius 98.9202
rwrist -3.95743
rhand -10.3625 -0.012409
rfingers 7.12502
rthumb 15.6346 -29.4006
lclavicle -6.36111e-015 1.98785e-016
lhumerus 33.5949 -15.3817 70.375
lradius 117.001
lwrist -18.1409
lhand -6.96544 22.6764
lfingers 7.12502
lthumb 18.9041 51.7778
rfemur -55.521 6.99052 13.4933
rtibia 28.3202
rfoot -1.24012 -14.1788
rtoes -9.93034
lfemur -54.4781 1.09153 -17.683
ltibia 35.8103
lfoot -5.40443 13.5291
ltoes -16.8753
2783
root 0.463115 17.6756 -0.89185 33.4095 -8.12409 -1.01375
lowerback 31.1189 -1.04293 3.94268
upperback 14.0145 -0.314491 1.69058
thorax -1.12576 -0.104661 -0.294044
lowerneck -14.093 -0.28798 3.07031
upperneck -4.49126 -0.879212 -5.82305
head 0.947585 -0.632291 -2.45893
rclavicle 0 1.66482e-014
rhumerus 31.2202 24.3386 -47.8527
rradius 98.8129
rwrist -3.26691
rhand -10.4098 1.319
rfingers 7.12502
rthumb 15.5889 -28.0728
lclavicle 0 1.66482e-014
lhumerus 33.8068 -15.0004 69.9303
lradius 115.716
lwrist -19.1468
lhand -14.0208 19.8391
lfingers 7.12502
lthumb 12.1091 49.4687
rfemur -55.4671 6.77042 13.9079
rtibia 28.3091
rfoot -0.937878 -13.6742
rtoes -11.5959
lfemur -54.5811 1.31063 -17.6152
ltibia 36.0628
lfoot -5.42987 13.4817
ltoes -17.0267
2784
root 0.460477 17.6764 -0.891863 33.416 -8.22323 -1.08307
lowerback 31.1215 -1.04822 3.83599
upperback 14.0249 -0.347281 1.75278
thorax -1.11651 -0.128948 -0.154198
lowerneck -14.0734 -0.246868 2.93687
upperneck -4.59428 -0.808011 -5.97736
head 0.914277 -0.596819 -2.48128
rclavicle 7.55382e-015 8.44835e-015
rhumerus 31.2221 24.879 -47.9638
rradius 99.2381
rwrist -1.52275
rhand -10.9353 1.62128
rfingers 7.12502
rthumb 15.0828 -27.8092
lclavicle 7.55382e-015 8.44835e-015
lhumerus 33.8555 -14.8678 69.5863
lradius 114.225
lwrist -20.5418
lhand -19.1348 18.3004
lfingers 7.12502
lthumb 7.17507 48.1587
rfemur -55.4663 6.57961 14.1407
rtibia 28.2714
rfoot -0.741449 -13.1572
rtoes -12.4765
lfemur -54.6276 1.50704 -17.6628
ltibia 36.1697
lfoot -5.4198 13.4613
ltoes -17.2257
2785
root 0.456867 17.6791 -0.890264 33.3528 -8.40934 -1.04147
lowerback 31.2233 -0.929785 3.5489
upperback 13.9982 -0.264595 1.90635
thorax -1.19153 -0.110456 0.155424
lowerneck -13.965 -0.302786 2.69369
upperneck -4.72085 -0.852336 -6.06229
head 0.851861 -0.615196 -2.46425
rclavicle 8.34896e-015 6.16729e-014
rhumerus 31.0077 24.8352 -48.3624
rradius 100.412
rwrist -0.4038
rhand -11.8048 1.4338
rfingers 7.12502
rthumb 14.2451 -28.0577
lclavicle 8.34896e-015 6.16729e-014
lhumerus 33.7132 -14.9304 69.5202
lradius 112.961
lwrist -22.8965
lhand -20.6572 18.6805
lfingers 7.12502
lthumb 5.70535 48.5836
rfemur -55.4042 6.43222 14.195
rtibia 28.2367
rfoot -0.570084 -12.667
rtoes -13.2626
lfemur -54.5115 1.61637 -17.7885
ltibia 36.1594
lfoot -5.51001 13.5076
ltoes -17.0138
2786
root 0.454544 17.6815 -0.887418 33.3141 -8.48225 -1.05879
lowerback 31.3163 -0.898409 3.41225
upperback 14.0286 -0.256157 1.97752
thorax -1.19756 -0.116374 0.310621
lowerneck -14.0029 -0.262359 2.79642
upperneck -4.86375 -0.821812 -6.17795
head 0.813683 -0.603263 -2.51971
rclavicle -1.82882e-014 -2.93207e-015
rhumerus 30.8423 24.136 -49.3818
rradius 102.178
rwrist -0.341641
rhand -12.6692 1.16167
rfingers 7.12502
rthumb 13.4121 -28.3866
lclavicle -1.82882e-014 -2.93207e-015
lhumerus 33.5893 -14.8656 69.3642
lradius 111.912
lwrist -25.7444
lhand -19.1761 19.9953
lfingers 7.12502
lthumb 7.13519 49.8551
rfemur -55.3391 6.23058 14.3698
rtibia 28.2283
rfoot -0.562867 -12.2158
rtoes -13.0376
lfemur -54.3918 1.68837 -17.8098
ltibia 36.0807
lfoot -5.50005 13.5376
ltoes -17.2369
2787
root 0.454594 17.6812 -0.884937 33.3465 -8.52955 -1.03746
lowerback 31.3317 -0.926784 3.30724
upperback 14.0929 -0.322028 1.94676
thorax -1.13198 -0.151132 0.357009
lowerneck -14.194 -0.162318 3.06885
upperneck -4.99554 -0.738283 -6.15969
head 0.807716 -0.567057 -2.56109
rclavicle -8.54774e-015 -1.78409e-014
rhumerus 30.8492 23.1387 -50.7851
rradius 104.032
rwrist -0.338805
rhand -14.6499 1.17918
rfingers 7.12502
rthumb 11.5024 -28.4852
lclavicle -8.54774e-015 -1.78409e-014
lhumerus 33.5385 -15.0695 68.7464
lradius 110.853
lwrist -27.2407
lhand -17.2028 21.1049
lfingers 7.12502
lthumb 9.03961 50.8912
rfemur -55.3882 5.98222 14.5218
rtibia 28.2587
rfoot -0.623322 -11.8486
rtoes -12.2556
lfemur -54.3517 1.68084 -17.8275
ltibia 35.9675
lfoot -5.51031 13.5712
ltoes -17.4707
2788
root 0.456574 17.6792 -0.882964 33.4067 -8.57069 -1.00193
lowerback 31.2235 -0.941373 3.26599
upperback 14.1559 -0.359405 1.9285
thorax -1.01338 -0.168997 0.370573
lowerneck -14.2989 -0.12927 3.20947
upperneck -5.09976 -0.722571 -5.98453
head 0.791524 -0.55899 -2.52739
rclavicle 1.35174e-014 2.5345e-015
rhumerus 30.9815 21.5633 -52.4177
rradius 106.312
rwrist -2.10942
rhand -15.6267 1.10363
rfingers 7.12502
rthumb 10.5603 -28.6111
lclavicle 1.35174e-014 2.5345e-015
lhumerus 33.3802 -15.7782 67.9481
lradius 109.747
lwrist -27.2709
lhand -14.6349 21.997
lfingers 7.12502
lthumb 11.5168 51.6606
rfemur -55.49 5.73992 14.6486
rtibia 28.3225
rfoot -0.64815 -11.5448
rtoes -11.698
lfemur -54.3501 1.60606 -17.814
ltibia 35.863
lfoot -5.63883 13.6031
ltoes -17.0281
2789
root 0.456194 17.677 -0.882773 33.4556 -8.63763 -0.931572
lowerback 31.4253 -0.7811 2.91288
upperback 14.0082 -0.225347 2.19977
thorax -1.27074 -0.134464 0.834293
lowerneck -14.6192 -0.139355 3.13884
upperneck -4.7317 -0.714791 -6.0271
head 0.967896 -0.563098 -2.53699
rclavicle -1.59028e-015 -2.4202e-014
rhumerus 31.2146 20.0123 -53.6101
rradius 108.501
rwrist -3.82223
rhand -17.2436 0.96839
rfingers 7.12502
rthumb 9.00028 -28.8196
lclavicle -1.59028e-015 -2.4202e-014
lhumerus 32.7898 -16.7197 67.7907
lradius 108.406
lwrist -26.6826
lhand -10.4108 22.243
lfingers 7.12502
lthumb 15.588 51.6349
rfemur -55.612 5.56723 14.6923
rtibia 28.4254
rfoot -0.669252 -11.3263
rtoes -11.7805
lfemur -54.3275 1.61116 -17.8938
ltibia 35.758
lfoot -5.74949 13.6001
ltoes -16.6705
